<?xml version="1.0" encoding="UTF-8"?> <svg xmlns="http://www.w3.org/2000/svg" width="376" height="129" viewBox="0 0 376 129" fill="none"><path d="M226.349 119.434V126.07H225.147V119.434H226.349ZM228.863 123.154V126.07H227.69V121.093H228.811V121.939H228.87C228.984 121.66 229.167 121.439 229.417 121.274C229.67 121.11 229.982 121.028 230.354 121.028C230.697 121.028 230.997 121.102 231.252 121.248C231.509 121.395 231.707 121.608 231.848 121.887C231.99 122.166 232.061 122.504 232.058 122.901V126.07H230.885V123.083C230.885 122.75 230.799 122.49 230.626 122.302C230.456 122.114 230.219 122.02 229.917 122.02C229.711 122.02 229.529 122.065 229.369 122.156C229.211 122.244 229.087 122.373 228.996 122.541C228.908 122.71 228.863 122.914 228.863 123.154ZM235.828 121.093V122H232.966V121.093H235.828ZM233.673 119.9H234.846V124.573C234.846 124.731 234.87 124.852 234.917 124.936C234.967 125.018 235.032 125.074 235.112 125.105C235.191 125.135 235.28 125.15 235.377 125.15C235.451 125.15 235.518 125.145 235.578 125.134C235.641 125.123 235.688 125.113 235.721 125.105L235.918 126.022C235.856 126.043 235.766 126.067 235.649 126.093C235.535 126.119 235.395 126.134 235.228 126.138C234.934 126.147 234.67 126.103 234.434 126.006C234.199 125.906 234.012 125.753 233.874 125.545C233.738 125.338 233.671 125.079 233.673 124.768V119.9ZM239.05 126.168C238.551 126.168 238.12 126.064 237.757 125.856C237.396 125.647 237.119 125.351 236.924 124.969C236.73 124.584 236.633 124.131 236.633 123.611C236.633 123.099 236.73 122.649 236.924 122.263C237.121 121.874 237.395 121.571 237.747 121.355C238.1 121.137 238.513 121.028 238.989 121.028C239.295 121.028 239.585 121.078 239.857 121.177C240.131 121.274 240.373 121.426 240.583 121.631C240.795 121.836 240.961 122.097 241.082 122.415C241.203 122.73 241.263 123.106 241.263 123.543V123.902H237.184V123.112H240.139C240.137 122.887 240.088 122.687 239.993 122.512C239.898 122.335 239.765 122.196 239.594 122.094C239.426 121.993 239.229 121.942 239.005 121.942C238.765 121.942 238.554 122 238.373 122.117C238.191 122.231 238.05 122.383 237.948 122.571C237.849 122.756 237.798 122.961 237.796 123.183V123.873C237.796 124.163 237.849 124.411 237.955 124.619C238.061 124.824 238.209 124.982 238.399 125.092C238.589 125.2 238.811 125.254 239.066 125.254C239.237 125.254 239.391 125.23 239.53 125.182C239.668 125.133 239.788 125.06 239.889 124.965C239.991 124.87 240.068 124.753 240.119 124.612L241.215 124.735C241.146 125.025 241.014 125.277 240.819 125.494C240.627 125.707 240.381 125.874 240.081 125.993C239.78 126.109 239.437 126.168 239.05 126.168ZM243.52 119.434V126.07H242.347V119.434H243.52ZM245.991 119.434V126.07H244.818V119.434H245.991ZM247.288 126.07V121.093H248.461V126.07H247.288ZM247.878 120.386C247.692 120.386 247.532 120.325 247.398 120.202C247.264 120.076 247.197 119.926 247.197 119.751C247.197 119.574 247.264 119.424 247.398 119.301C247.532 119.176 247.692 119.113 247.878 119.113C248.066 119.113 248.226 119.176 248.358 119.301C248.492 119.424 248.558 119.574 248.558 119.751C248.558 119.926 248.492 120.076 248.358 120.202C248.226 120.325 248.066 120.386 247.878 120.386ZM251.923 128.041C251.502 128.041 251.14 127.983 250.838 127.869C250.535 127.756 250.292 127.605 250.109 127.415C249.925 127.225 249.798 127.014 249.726 126.783L250.783 126.527C250.83 126.624 250.899 126.721 250.99 126.816C251.081 126.913 251.203 126.993 251.356 127.055C251.512 127.12 251.707 127.153 251.943 127.153C252.276 127.153 252.551 127.072 252.769 126.91C252.987 126.75 253.097 126.486 253.097 126.119V125.176H253.038C252.978 125.297 252.889 125.421 252.772 125.549C252.658 125.676 252.506 125.783 252.316 125.869C252.128 125.956 251.891 125.999 251.606 125.999C251.224 125.999 250.877 125.909 250.566 125.73C250.257 125.549 250.01 125.279 249.827 124.92C249.645 124.559 249.555 124.108 249.555 123.565C249.555 123.019 249.645 122.558 249.827 122.182C250.01 121.804 250.258 121.517 250.569 121.323C250.88 121.126 251.227 121.028 251.609 121.028C251.901 121.028 252.141 121.078 252.329 121.177C252.519 121.274 252.67 121.392 252.782 121.53C252.895 121.666 252.98 121.795 253.038 121.916H253.103V121.093H254.26V126.151C254.26 126.577 254.158 126.929 253.955 127.208C253.752 127.486 253.475 127.695 253.122 127.833C252.77 127.971 252.371 128.041 251.923 128.041ZM251.933 125.079C252.182 125.079 252.393 125.018 252.568 124.897C252.743 124.776 252.876 124.602 252.967 124.376C253.058 124.149 253.103 123.876 253.103 123.559C253.103 123.246 253.058 122.971 252.967 122.736C252.878 122.5 252.747 122.318 252.572 122.188C252.399 122.056 252.186 121.991 251.933 121.991C251.672 121.991 251.454 122.059 251.279 122.195C251.104 122.331 250.972 122.518 250.883 122.755C250.795 122.991 250.75 123.259 250.75 123.559C250.75 123.864 250.795 124.13 250.883 124.359C250.974 124.586 251.107 124.763 251.282 124.891C251.459 125.016 251.676 125.079 251.933 125.079ZM257.757 126.168C257.258 126.168 256.827 126.064 256.464 125.856C256.103 125.647 255.826 125.351 255.631 124.969C255.437 124.584 255.339 124.131 255.339 123.611C255.339 123.099 255.437 122.649 255.631 122.263C255.828 121.874 256.102 121.571 256.454 121.355C256.806 121.137 257.22 121.028 257.695 121.028C258.002 121.028 258.292 121.078 258.564 121.177C258.838 121.274 259.08 121.426 259.29 121.631C259.501 121.836 259.668 122.097 259.789 122.415C259.91 122.73 259.97 123.106 259.97 123.543V123.902H255.89V123.112H258.846C258.844 122.887 258.795 122.687 258.7 122.512C258.605 122.335 258.472 122.196 258.301 122.094C258.133 121.993 257.936 121.942 257.712 121.942C257.472 121.942 257.261 122 257.08 122.117C256.898 122.231 256.757 122.383 256.655 122.571C256.556 122.756 256.505 122.961 256.503 123.183V123.873C256.503 124.163 256.556 124.411 256.662 124.619C256.767 124.824 256.915 124.982 257.106 125.092C257.296 125.2 257.518 125.254 257.773 125.254C257.944 125.254 258.098 125.23 258.236 125.182C258.375 125.133 258.495 125.06 258.596 124.965C258.698 124.87 258.774 124.753 258.826 124.612L259.922 124.735C259.852 125.025 259.721 125.277 259.526 125.494C259.334 125.707 259.088 125.874 258.787 125.993C258.487 126.109 258.144 126.168 257.757 126.168ZM262.227 123.154V126.07H261.054V121.093H262.175V121.939H262.233C262.348 121.66 262.53 121.439 262.781 121.274C263.034 121.11 263.346 121.028 263.717 121.028C264.061 121.028 264.36 121.102 264.615 121.248C264.872 121.395 265.071 121.608 265.211 121.887C265.354 122.166 265.424 122.504 265.422 122.901V126.07H264.249V123.083C264.249 122.75 264.163 122.49 263.99 122.302C263.819 122.114 263.582 122.02 263.28 122.02C263.075 122.02 262.892 122.065 262.732 122.156C262.575 122.244 262.45 122.373 262.36 122.541C262.271 122.71 262.227 122.914 262.227 123.154ZM269.191 121.093V122H266.33V121.093H269.191ZM267.036 119.9H268.209V124.573C268.209 124.731 268.233 124.852 268.281 124.936C268.33 125.018 268.395 125.074 268.475 125.105C268.555 125.135 268.644 125.15 268.741 125.15C268.814 125.15 268.881 125.145 268.942 125.134C269.004 125.123 269.052 125.113 269.084 125.105L269.282 126.022C269.219 126.043 269.13 126.067 269.013 126.093C268.899 126.119 268.758 126.134 268.592 126.138C268.298 126.147 268.033 126.103 267.798 126.006C267.562 125.906 267.375 125.753 267.237 125.545C267.101 125.338 267.034 125.079 267.036 124.768V119.9ZM270.986 126.142C270.79 126.142 270.621 126.072 270.481 125.934C270.34 125.796 270.271 125.627 270.273 125.429C270.271 125.234 270.34 125.068 270.481 124.93C270.621 124.791 270.79 124.722 270.986 124.722C271.176 124.722 271.342 124.791 271.482 124.93C271.625 125.068 271.697 125.234 271.699 125.429C271.697 125.56 271.662 125.68 271.595 125.788C271.531 125.896 271.444 125.983 271.336 126.048C271.23 126.11 271.114 126.142 270.986 126.142ZM276.405 119.434V126.07H275.203V119.434H276.405ZM278.92 123.154V126.07H277.747V121.093H278.868V121.939H278.926C279.041 121.66 279.223 121.439 279.474 121.274C279.727 121.11 280.039 121.028 280.41 121.028C280.754 121.028 281.053 121.102 281.308 121.248C281.565 121.395 281.764 121.608 281.904 121.887C282.047 122.166 282.117 122.504 282.115 122.901V126.07H280.942V123.083C280.942 122.75 280.855 122.49 280.683 122.302C280.512 122.114 280.275 122.02 279.973 122.02C279.768 122.02 279.585 122.065 279.425 122.156C279.267 122.244 279.143 122.373 279.053 122.541C278.964 122.71 278.92 122.914 278.92 123.154ZM285.884 121.093V122H283.023V121.093H285.884ZM283.729 119.9H284.902V124.573C284.902 124.731 284.926 124.852 284.973 124.936C285.023 125.018 285.088 125.074 285.168 125.105C285.248 125.135 285.336 125.15 285.434 125.15C285.507 125.15 285.574 125.145 285.635 125.134C285.697 125.123 285.745 125.113 285.777 125.105L285.975 126.022C285.912 126.043 285.822 126.067 285.706 126.093C285.591 126.119 285.451 126.134 285.285 126.138C284.991 126.147 284.726 126.103 284.491 126.006C284.255 125.906 284.068 125.753 283.93 125.545C283.794 125.338 283.727 125.079 283.729 124.768V119.9ZM289.106 126.168C288.607 126.168 288.176 126.064 287.813 125.856C287.453 125.647 287.175 125.351 286.981 124.969C286.786 124.584 286.689 124.131 286.689 123.611C286.689 123.099 286.786 122.649 286.981 122.263C287.177 121.874 287.452 121.571 287.804 121.355C288.156 121.137 288.57 121.028 289.045 121.028C289.352 121.028 289.641 121.078 289.913 121.177C290.188 121.274 290.43 121.426 290.639 121.631C290.851 121.836 291.017 122.097 291.138 122.415C291.259 122.73 291.32 123.106 291.32 123.543V123.902H287.24V123.112H290.195C290.193 122.887 290.144 122.687 290.049 122.512C289.954 122.335 289.822 122.196 289.651 122.094C289.482 121.993 289.286 121.942 289.061 121.942C288.821 121.942 288.611 122 288.429 122.117C288.248 122.231 288.106 122.383 288.005 122.571C287.905 122.756 287.855 122.961 287.852 123.183V123.873C287.852 124.163 287.905 124.411 288.011 124.619C288.117 124.824 288.265 124.982 288.455 125.092C288.645 125.2 288.868 125.254 289.123 125.254C289.293 125.254 289.448 125.23 289.586 125.182C289.724 125.133 289.844 125.06 289.946 124.965C290.047 124.87 290.124 124.753 290.176 124.612L291.271 124.735C291.202 125.025 291.07 125.277 290.876 125.494C290.683 125.707 290.437 125.874 290.137 125.993C289.837 126.109 289.493 126.168 289.106 126.168ZM294.568 128.041C294.147 128.041 293.785 127.983 293.482 127.869C293.18 127.756 292.937 127.605 292.753 127.415C292.57 127.225 292.442 127.014 292.371 126.783L293.427 126.527C293.475 126.624 293.544 126.721 293.635 126.816C293.725 126.913 293.848 126.993 294.001 127.055C294.156 127.12 294.352 127.153 294.587 127.153C294.92 127.153 295.196 127.072 295.414 126.91C295.632 126.75 295.741 126.486 295.741 126.119V125.176H295.683C295.622 125.297 295.534 125.421 295.417 125.549C295.303 125.676 295.15 125.783 294.96 125.869C294.772 125.956 294.536 125.999 294.25 125.999C293.868 125.999 293.521 125.909 293.21 125.73C292.901 125.549 292.655 125.279 292.471 124.92C292.29 124.559 292.199 124.108 292.199 123.565C292.199 123.019 292.29 122.558 292.471 122.182C292.655 121.804 292.902 121.517 293.213 121.323C293.525 121.126 293.871 121.028 294.254 121.028C294.545 121.028 294.785 121.078 294.973 121.177C295.163 121.274 295.314 121.392 295.427 121.53C295.539 121.666 295.624 121.795 295.683 121.916H295.748V121.093H296.904V126.151C296.904 126.577 296.803 126.929 296.6 127.208C296.397 127.486 296.119 127.695 295.767 127.833C295.415 127.971 295.015 128.041 294.568 128.041ZM294.578 125.079C294.826 125.079 295.038 125.018 295.213 124.897C295.388 124.776 295.521 124.602 295.611 124.376C295.702 124.149 295.748 123.876 295.748 123.559C295.748 123.246 295.702 122.971 295.611 122.736C295.523 122.5 295.391 122.318 295.216 122.188C295.043 122.056 294.83 121.991 294.578 121.991C294.316 121.991 294.098 122.059 293.923 122.195C293.748 122.331 293.616 122.518 293.528 122.755C293.439 122.991 293.395 123.259 293.395 123.559C293.395 123.864 293.439 124.13 293.528 124.359C293.619 124.586 293.751 124.763 293.926 124.891C294.104 125.016 294.321 125.079 294.578 125.079ZM298.198 126.07V121.093H299.335V121.922H299.387C299.478 121.635 299.633 121.414 299.854 121.258C300.076 121.1 300.33 121.022 300.615 121.022C300.68 121.022 300.752 121.025 300.832 121.031C300.915 121.036 300.983 121.043 301.037 121.054V122.133C300.987 122.116 300.908 122.101 300.8 122.088C300.694 122.073 300.592 122.065 300.492 122.065C300.278 122.065 300.086 122.111 299.915 122.204C299.747 122.295 299.614 122.422 299.517 122.584C299.42 122.746 299.371 122.932 299.371 123.144V126.07H298.198ZM303.25 126.171C302.935 126.171 302.651 126.115 302.398 126.002C302.148 125.888 301.949 125.719 301.802 125.497C301.657 125.274 301.585 125 301.585 124.674C301.585 124.393 301.637 124.161 301.74 123.977C301.844 123.793 301.985 123.646 302.165 123.536C302.344 123.426 302.546 123.343 302.771 123.287C302.998 123.228 303.232 123.186 303.474 123.16C303.766 123.13 304.002 123.103 304.184 123.079C304.365 123.053 304.497 123.015 304.579 122.963C304.663 122.909 304.705 122.825 304.705 122.713V122.694C304.705 122.45 304.633 122.261 304.488 122.127C304.343 121.993 304.135 121.926 303.863 121.926C303.575 121.926 303.348 121.988 303.179 122.114C303.013 122.239 302.9 122.387 302.842 122.558L301.747 122.402C301.833 122.1 301.976 121.847 302.175 121.644C302.373 121.439 302.616 121.285 302.904 121.184C303.191 121.08 303.509 121.028 303.856 121.028C304.096 121.028 304.335 121.056 304.572 121.112C304.81 121.169 305.027 121.261 305.224 121.391C305.42 121.518 305.578 121.692 305.697 121.913C305.818 122.133 305.878 122.409 305.878 122.739V126.07H304.751V125.387H304.712C304.641 125.525 304.54 125.654 304.41 125.775C304.283 125.894 304.122 125.99 303.928 126.064C303.735 126.135 303.51 126.171 303.25 126.171ZM303.555 125.309C303.79 125.309 303.995 125.262 304.167 125.169C304.34 125.074 304.473 124.949 304.566 124.794C304.661 124.638 304.709 124.468 304.709 124.285V123.698C304.672 123.729 304.609 123.757 304.521 123.783C304.434 123.808 304.337 123.831 304.229 123.851C304.121 123.87 304.014 123.887 303.908 123.902C303.802 123.918 303.711 123.93 303.633 123.941C303.458 123.965 303.301 124.004 303.163 124.058C303.025 124.112 302.916 124.188 302.836 124.285C302.756 124.38 302.716 124.503 302.716 124.654C302.716 124.87 302.795 125.033 302.952 125.144C303.11 125.254 303.311 125.309 303.555 125.309ZM309.635 121.093V122H306.773V121.093H309.635ZM307.48 119.9H308.653V124.573C308.653 124.731 308.677 124.852 308.724 124.936C308.774 125.018 308.839 125.074 308.919 125.105C308.998 125.135 309.087 125.15 309.184 125.15C309.258 125.15 309.325 125.145 309.385 125.134C309.448 125.123 309.495 125.113 309.528 125.105L309.725 126.022C309.663 126.043 309.573 126.067 309.456 126.093C309.342 126.119 309.202 126.134 309.035 126.138C308.741 126.147 308.477 126.103 308.241 126.006C308.006 125.906 307.819 125.753 307.681 125.545C307.545 125.338 307.478 125.079 307.48 124.768V119.9ZM312.857 126.168C312.358 126.168 311.927 126.064 311.564 125.856C311.203 125.647 310.926 125.351 310.731 124.969C310.537 124.584 310.44 124.131 310.44 123.611C310.44 123.099 310.537 122.649 310.731 122.263C310.928 121.874 311.202 121.571 311.554 121.355C311.907 121.137 312.32 121.028 312.795 121.028C313.102 121.028 313.392 121.078 313.664 121.177C313.938 121.274 314.18 121.426 314.39 121.631C314.602 121.836 314.768 122.097 314.889 122.415C315.01 122.73 315.07 123.106 315.07 123.543V123.902H310.991V123.112H313.946C313.944 122.887 313.895 122.687 313.8 122.512C313.705 122.335 313.572 122.196 313.401 122.094C313.233 121.993 313.036 121.942 312.812 121.942C312.572 121.942 312.361 122 312.18 122.117C311.998 122.231 311.857 122.383 311.755 122.571C311.656 122.756 311.605 122.961 311.603 123.183V123.873C311.603 124.163 311.656 124.411 311.762 124.619C311.868 124.824 312.016 124.982 312.206 125.092C312.396 125.2 312.618 125.254 312.873 125.254C313.044 125.254 313.198 125.23 313.337 125.182C313.475 125.133 313.595 125.06 313.696 124.965C313.798 124.87 313.875 124.753 313.926 124.612L315.022 124.735C314.953 125.025 314.821 125.277 314.626 125.494C314.434 125.707 314.188 125.874 313.888 125.993C313.587 126.109 313.244 126.168 312.857 126.168ZM318.001 126.158C317.61 126.158 317.26 126.057 316.951 125.856C316.642 125.656 316.398 125.364 316.219 124.982C316.039 124.599 315.95 124.135 315.95 123.588C315.95 123.035 316.041 122.568 316.222 122.188C316.406 121.806 316.653 121.517 316.964 121.323C317.275 121.126 317.622 121.028 318.004 121.028C318.296 121.028 318.536 121.078 318.724 121.177C318.912 121.274 319.061 121.392 319.171 121.53C319.281 121.666 319.366 121.795 319.427 121.916H319.476V119.434H320.652V126.07H319.498V125.286H319.427C319.366 125.407 319.279 125.536 319.164 125.672C319.05 125.806 318.899 125.92 318.711 126.015C318.523 126.11 318.286 126.158 318.001 126.158ZM318.328 125.195C318.577 125.195 318.789 125.128 318.964 124.994C319.138 124.858 319.271 124.669 319.362 124.427C319.453 124.185 319.498 123.903 319.498 123.582C319.498 123.26 319.453 122.98 319.362 122.742C319.274 122.505 319.142 122.32 318.967 122.188C318.794 122.056 318.581 121.991 318.328 121.991C318.067 121.991 317.849 122.059 317.674 122.195C317.499 122.331 317.367 122.519 317.278 122.759C317.19 122.998 317.146 123.273 317.146 123.582C317.146 123.893 317.19 124.17 317.278 124.414C317.369 124.656 317.502 124.848 317.677 124.988C317.854 125.126 318.071 125.195 318.328 125.195ZM322.716 126.142C322.519 126.142 322.351 126.072 322.21 125.934C322.07 125.796 322.001 125.627 322.003 125.429C322.001 125.234 322.07 125.068 322.21 124.93C322.351 124.791 322.519 124.722 322.716 124.722C322.906 124.722 323.071 124.791 323.212 124.93C323.354 125.068 323.426 125.234 323.429 125.429C323.426 125.56 323.392 125.68 323.325 125.788C323.26 125.896 323.174 125.983 323.066 126.048C322.96 126.11 322.843 126.142 322.716 126.142ZM332.613 121.673H331.401C331.367 121.474 331.303 121.298 331.21 121.145C331.117 120.989 331.002 120.857 330.863 120.749C330.725 120.641 330.567 120.56 330.39 120.506C330.215 120.45 330.026 120.422 329.823 120.422C329.462 120.422 329.143 120.513 328.864 120.694C328.585 120.874 328.367 121.137 328.209 121.485C328.052 121.831 327.973 122.253 327.973 122.752C327.973 123.26 328.052 123.687 328.209 124.035C328.369 124.381 328.587 124.642 328.864 124.819C329.143 124.994 329.461 125.082 329.82 125.082C330.019 125.082 330.204 125.056 330.377 125.004C330.552 124.95 330.709 124.871 330.847 124.768C330.988 124.664 331.105 124.536 331.2 124.385C331.298 124.234 331.365 124.061 331.401 123.867L332.613 123.873C332.568 124.189 332.47 124.485 332.318 124.761C332.169 125.038 331.974 125.282 331.732 125.494C331.49 125.703 331.207 125.867 330.883 125.986C330.559 126.103 330.199 126.161 329.804 126.161C329.22 126.161 328.7 126.026 328.242 125.756C327.784 125.486 327.423 125.096 327.159 124.586C326.896 124.076 326.764 123.465 326.764 122.752C326.764 122.037 326.897 121.426 327.163 120.918C327.428 120.408 327.79 120.018 328.248 119.748C328.706 119.478 329.225 119.343 329.804 119.343C330.173 119.343 330.517 119.395 330.834 119.499C331.152 119.602 331.435 119.755 331.683 119.955C331.932 120.154 332.136 120.398 332.296 120.688C332.458 120.975 332.564 121.304 332.613 121.673ZM335.925 126.168C335.439 126.168 335.017 126.061 334.661 125.847C334.305 125.633 334.028 125.334 333.831 124.949C333.637 124.565 333.54 124.115 333.54 123.601C333.54 123.087 333.637 122.636 333.831 122.25C334.028 121.863 334.305 121.563 334.661 121.349C335.017 121.135 335.439 121.028 335.925 121.028C336.411 121.028 336.832 121.135 337.189 121.349C337.545 121.563 337.82 121.863 338.015 122.25C338.211 122.636 338.31 123.087 338.31 123.601C338.31 124.115 338.211 124.565 338.015 124.949C337.82 125.334 337.545 125.633 337.189 125.847C336.832 126.061 336.411 126.168 335.925 126.168ZM335.931 125.228C336.195 125.228 336.415 125.155 336.592 125.011C336.769 124.864 336.901 124.667 336.988 124.421C337.076 124.175 337.121 123.9 337.121 123.598C337.121 123.293 337.076 123.018 336.988 122.771C336.901 122.523 336.769 122.325 336.592 122.178C336.415 122.032 336.195 121.958 335.931 121.958C335.661 121.958 335.437 122.032 335.257 122.178C335.08 122.325 334.947 122.523 334.859 122.771C334.772 123.018 334.729 123.293 334.729 123.598C334.729 123.9 334.772 124.175 334.859 124.421C334.947 124.667 335.08 124.864 335.257 125.011C335.437 125.155 335.661 125.228 335.931 125.228ZM339.397 126.07V121.093H340.518V121.939H340.576C340.68 121.654 340.852 121.431 341.091 121.271C341.331 121.109 341.617 121.028 341.95 121.028C342.287 121.028 342.571 121.11 342.802 121.274C343.036 121.436 343.2 121.658 343.295 121.939H343.347C343.457 121.662 343.643 121.442 343.904 121.278C344.168 121.111 344.48 121.028 344.841 121.028C345.299 121.028 345.672 121.173 345.962 121.462C346.251 121.752 346.396 122.174 346.396 122.729V126.07H345.22V122.911C345.22 122.602 345.138 122.376 344.974 122.234C344.809 122.089 344.608 122.016 344.371 122.016C344.088 122.016 343.866 122.105 343.707 122.282C343.549 122.457 343.47 122.685 343.47 122.966V126.07H342.32V122.862C342.32 122.605 342.242 122.4 342.086 122.247C341.933 122.093 341.732 122.016 341.484 122.016C341.315 122.016 341.162 122.06 341.023 122.146C340.885 122.23 340.775 122.35 340.693 122.506C340.611 122.659 340.57 122.838 340.57 123.044V126.07H339.397ZM347.677 127.937V121.093H348.831V121.916H348.899C348.96 121.795 349.045 121.666 349.155 121.53C349.265 121.392 349.414 121.274 349.602 121.177C349.79 121.078 350.03 121.028 350.322 121.028C350.706 121.028 351.053 121.126 351.362 121.323C351.673 121.517 351.919 121.806 352.101 122.188C352.284 122.568 352.376 123.035 352.376 123.588C352.376 124.135 352.287 124.599 352.107 124.982C351.928 125.364 351.684 125.656 351.375 125.856C351.066 126.057 350.716 126.158 350.325 126.158C350.04 126.158 349.803 126.11 349.615 126.015C349.427 125.92 349.276 125.806 349.162 125.672C349.049 125.536 348.962 125.407 348.899 125.286H348.851V127.937H347.677ZM348.828 123.582C348.828 123.903 348.873 124.185 348.964 124.427C349.057 124.669 349.19 124.858 349.363 124.994C349.538 125.128 349.749 125.195 349.998 125.195C350.257 125.195 350.474 125.126 350.649 124.988C350.824 124.848 350.956 124.656 351.044 124.414C351.135 124.17 351.18 123.893 351.18 123.582C351.18 123.273 351.136 122.998 351.048 122.759C350.959 122.519 350.827 122.331 350.652 122.195C350.477 122.059 350.259 121.991 349.998 121.991C349.747 121.991 349.534 122.056 349.359 122.188C349.184 122.32 349.051 122.505 348.961 122.742C348.872 122.98 348.828 123.26 348.828 123.582ZM354.645 119.434V126.07H353.472V119.434H354.645ZM355.943 126.07V121.093H357.116V126.07H355.943ZM356.532 120.386C356.347 120.386 356.187 120.325 356.053 120.202C355.919 120.076 355.852 119.926 355.852 119.751C355.852 119.574 355.919 119.424 356.053 119.301C356.187 119.176 356.347 119.113 356.532 119.113C356.72 119.113 356.88 119.176 357.012 119.301C357.146 119.424 357.213 119.574 357.213 119.751C357.213 119.926 357.146 120.076 357.012 120.202C356.88 120.325 356.72 120.386 356.532 120.386ZM359.846 126.171C359.53 126.171 359.246 126.115 358.993 126.002C358.743 125.888 358.544 125.719 358.397 125.497C358.252 125.274 358.18 125 358.18 124.674C358.18 124.393 358.232 124.161 358.335 123.977C358.439 123.793 358.581 123.646 358.76 123.536C358.939 123.426 359.141 123.343 359.366 123.287C359.593 123.228 359.827 123.186 360.069 123.16C360.361 123.13 360.597 123.103 360.779 123.079C360.96 123.053 361.092 123.015 361.174 122.963C361.258 122.909 361.301 122.825 361.301 122.713V122.694C361.301 122.45 361.228 122.261 361.083 122.127C360.939 121.993 360.73 121.926 360.458 121.926C360.171 121.926 359.943 121.988 359.774 122.114C359.608 122.239 359.496 122.387 359.437 122.558L358.342 122.402C358.428 122.1 358.571 121.847 358.77 121.644C358.968 121.439 359.211 121.285 359.499 121.184C359.786 121.08 360.104 121.028 360.451 121.028C360.691 121.028 360.93 121.056 361.168 121.112C361.405 121.169 361.622 121.261 361.819 121.391C362.016 121.518 362.173 121.692 362.292 121.913C362.413 122.133 362.474 122.409 362.474 122.739V126.07H361.346V125.387H361.307C361.236 125.525 361.135 125.654 361.006 125.775C360.878 125.894 360.717 125.99 360.523 126.064C360.331 126.135 360.105 126.171 359.846 126.171ZM360.15 125.309C360.386 125.309 360.59 125.262 360.763 125.169C360.935 125.074 361.068 124.949 361.161 124.794C361.256 124.638 361.304 124.468 361.304 124.285V123.698C361.267 123.729 361.204 123.757 361.116 123.783C361.029 123.808 360.932 123.831 360.824 123.851C360.716 123.87 360.609 123.887 360.503 123.902C360.397 123.918 360.306 123.93 360.228 123.941C360.053 123.965 359.896 124.004 359.758 124.058C359.62 124.112 359.511 124.188 359.431 124.285C359.351 124.38 359.311 124.503 359.311 124.654C359.311 124.87 359.39 125.033 359.547 125.144C359.705 125.254 359.906 125.309 360.15 125.309ZM364.917 123.154V126.07H363.744V121.093H364.866V121.939H364.924C365.038 121.66 365.221 121.439 365.472 121.274C365.724 121.11 366.036 121.028 366.408 121.028C366.752 121.028 367.051 121.102 367.306 121.248C367.563 121.395 367.762 121.608 367.902 121.887C368.045 122.166 368.115 122.504 368.113 122.901V126.07H366.94V123.083C366.94 122.75 366.853 122.49 366.68 122.302C366.51 122.114 366.273 122.02 365.971 122.02C365.765 122.02 365.583 122.065 365.423 122.156C365.265 122.244 365.141 122.373 365.05 122.541C364.962 122.71 364.917 122.914 364.917 123.154ZM371.882 121.093V122H369.02V121.093H371.882ZM369.727 119.9H370.9V124.573C370.9 124.731 370.924 124.852 370.971 124.936C371.021 125.018 371.086 125.074 371.166 125.105C371.246 125.135 371.334 125.15 371.431 125.15C371.505 125.15 371.572 125.145 371.632 125.134C371.695 125.123 371.742 125.113 371.775 125.105L371.973 126.022C371.91 126.043 371.82 126.067 371.704 126.093C371.589 126.119 371.449 126.134 371.282 126.138C370.988 126.147 370.724 126.103 370.488 126.006C370.253 125.906 370.066 125.753 369.928 125.545C369.792 125.338 369.725 125.079 369.727 124.768V119.9ZM373.677 126.142C373.48 126.142 373.312 126.072 373.171 125.934C373.031 125.796 372.962 125.627 372.964 125.429C372.962 125.234 373.031 125.068 373.171 124.93C373.312 124.791 373.48 124.722 373.677 124.722C373.867 124.722 374.032 124.791 374.173 124.93C374.315 125.068 374.387 125.234 374.39 125.429C374.387 125.56 374.353 125.68 374.286 125.788C374.221 125.896 374.135 125.983 374.027 126.048C373.921 126.11 373.804 126.142 373.677 126.142Z" fill="#111E86"></path><path d="M52.7633 121.13C27.2394 121.13 6.47442 102.582 6.47442 79.7837C6.47442 56.9852 27.2394 38.437 52.7633 38.437C58.5177 38.437 64.0276 39.3831 69.1144 41.1041C71.1333 41.7875 73.085 42.5917 74.9575 43.5099C74.9696 42.9314 74.9937 42.3502 75.0434 41.765C75.1724 40.2628 75.433 38.8032 75.7997 37.3887C78.8313 25.6796 89.6067 17.272 102.014 17.272C102.78 17.272 103.553 17.3038 104.33 17.3688C110.151 17.8572 115.534 20.1329 119.847 23.8669C120.876 24.7573 121.844 25.73 122.743 26.7823C123.24 27.3648 123.704 27.9672 124.145 28.583C125.053 26.6151 126.125 24.7587 127.333 23.0177C134.34 12.9169 146.046 6.82615 158.43 6.82615C162.164 6.82615 165.961 7.37949 169.707 8.54456C183.003 12.6767 195.63 21.5739 198.456 34.1362C199.777 33.2834 199.8 33.2684 198.456 34.1362C194.865 20.105 186.471 7.57323 171.499 2.92091C153.128 -2.78899 133.737 4.17488 123.029 18.8099C117.895 14.622 111.61 12.065 104.835 11.4957C88.7699 10.1489 74.3758 20.4394 70.1957 35.2496C64.7409 33.4993 58.8723 32.5426 52.762 32.5426C23.9498 32.5413 0.507812 53.7341 0.507812 79.7837C0.507812 105.833 23.9498 127.025 52.7633 127.025H219.514V121.13H52.7633Z" fill="url(#paint0_linear_40003511_93257)"></path><path d="M34.0533 90.3939L45.933 88.5824C46.4385 90.8853 47.4636 92.6406 49.0083 93.8482C50.5529 95.0278 52.7154 95.6175 55.4957 95.6175C58.5569 95.6175 60.8599 95.0559 62.4045 93.9325C63.4436 93.1461 63.9632 92.093 63.9632 90.773C63.9632 89.8743 63.6823 89.1301 63.1207 88.5403C62.5309 87.9786 61.2109 87.459 59.1608 86.9816C49.6121 84.8753 43.5599 82.9515 41.0042 81.2103C37.4656 78.795 35.6963 75.4389 35.6963 71.142C35.6963 67.2664 37.2269 64.0086 40.2881 61.3686C43.3493 58.7287 48.0955 57.4088 54.5268 57.4088C60.6492 57.4088 65.1989 58.4057 68.1758 60.3997C71.1528 62.3937 73.2029 65.3426 74.3263 69.2463L63.1628 71.3105C62.6853 69.5693 61.7726 68.2353 60.4246 67.3085C59.1046 66.3817 57.2089 65.9183 54.7375 65.9183C51.6201 65.9183 49.3874 66.3536 48.0393 67.2242C47.1406 67.8421 46.6913 68.6425 46.6913 69.6255C46.6913 70.468 47.0845 71.1841 47.8708 71.7739C48.938 72.5603 52.6171 73.6696 58.908 75.1019C65.227 76.5342 69.6362 78.2895 72.1357 80.3677C74.6072 82.4741 75.8429 85.4089 75.8429 89.1722C75.8429 93.2725 74.1297 96.7971 70.7034 99.746C67.2771 102.695 62.2079 104.169 55.4957 104.169C49.4014 104.169 44.5709 102.934 41.0042 100.462C37.4656 97.9907 35.1486 94.6346 34.0533 90.3939ZM111.381 103.158V96.4601C109.752 98.8473 107.604 100.729 104.935 102.105C102.296 103.481 99.5012 104.169 96.5523 104.169C93.5473 104.169 90.8512 103.509 88.464 102.189C86.0768 100.869 84.3496 99.0158 83.2824 96.6286C82.2152 94.2414 81.6816 90.9415 81.6816 86.7288V58.4198H93.5192V78.9776C93.5192 85.2685 93.7298 89.1301 94.1511 90.5624C94.6004 91.9666 95.4008 93.09 96.5523 93.9325C97.7038 94.7469 99.1641 95.1542 100.933 95.1542C102.956 95.1542 104.767 94.6065 106.368 93.5112C107.969 92.3878 109.064 91.0117 109.654 89.3828C110.243 87.7258 110.538 83.6957 110.538 77.2925V58.4198H122.376V103.158H111.381ZM141.695 103.158H129.858V58.4198H140.853V64.7809C142.734 61.7759 144.419 59.7959 145.908 58.8411C147.424 57.8862 149.137 57.4088 151.047 57.4088C153.743 57.4088 156.341 58.153 158.841 59.6415L155.176 69.9625C153.182 68.6706 151.328 68.0246 149.615 68.0246C147.958 68.0246 146.554 68.488 145.402 69.4148C144.251 70.3135 143.338 71.9565 142.664 74.3436C142.018 76.7308 141.695 81.7298 141.695 89.3407V103.158ZM156.928 80.1571C156.928 76.2253 157.897 72.4199 159.835 68.7408C161.773 65.0617 164.511 62.2533 168.05 60.3155C171.616 58.3777 175.59 57.4088 179.971 57.4088C186.74 57.4088 192.286 59.6134 196.611 64.0226C200.936 68.4038 203.099 73.9505 203.099 80.6626C203.099 87.431 200.908 93.0478 196.527 97.5132C192.174 101.951 186.683 104.169 180.056 104.169C175.955 104.169 172.037 103.242 168.302 101.389C164.595 99.5353 161.773 96.8252 159.835 93.2585C157.897 89.6637 156.928 85.2965 156.928 80.1571ZM169.061 80.789C169.061 85.2263 170.114 88.6245 172.22 90.9836C174.326 93.3427 176.924 94.5223 180.013 94.5223C183.103 94.5223 185.686 93.3427 187.765 90.9836C189.871 88.6245 190.924 85.1982 190.924 80.7047C190.924 76.3236 189.871 72.9535 187.765 70.5944C185.686 68.2353 183.103 67.0557 180.013 67.0557C176.924 67.0557 174.326 68.2353 172.22 70.5944C170.114 72.9535 169.061 76.3517 169.061 80.789ZM208.306 103.158V41.4007H220.438L245.714 82.6426V41.4007H257.299V103.158H244.787L219.89 62.8852V103.158H208.306ZM266.213 103.158V41.4007H312.004V51.848H278.682V65.5392H309.687V75.9444H278.682V92.7529H313.184V103.158H266.213ZM313.167 103.158L334.273 70.9314L315.147 41.4007H329.723L342.108 61.2423L354.241 41.4007H368.69L349.48 71.3948L370.586 103.158H355.546L341.855 81.8L328.122 103.158H313.167Z" fill="url(#paint1_linear_40003511_93257)"></path><defs><linearGradient id="paint0_linear_40003511_93257" x1="187.161" y1="0.930173" x2="145.159" y2="94.3524" gradientUnits="userSpaceOnUse"><stop offset="0.0384615" stop-color="#B63EAC"></stop><stop offset="1" stop-color="#3530BA"></stop></linearGradient><linearGradient id="paint1_linear_40003511_93257" x1="366.07" y1="47.2582" x2="256.169" y2="91.1506" gradientUnits="userSpaceOnUse"><stop stop-color="#D93E9C"></stop><stop offset="0.163462" stop-color="#A83CAE"></stop><stop offset="0.485577" stop-color="#7937B3"></stop><stop offset="1" stop-color="#3530BA"></stop></linearGradient></defs></svg> 